<svg xmlns="http://www.w3.org/2000/svg" width="64" height="28" viewBox="0 0 64 28" fill="none">
  <g clip-path="url(#clip0_1_882)">
    <path d="M17.0786 9.25126C16.3271 8.74132 13.8999 8.45757 9.39072 8.08281C6.69853 7.85929 3.35266 7.5809 2.87158 7.22889C2.71665 7.06025 2.55357 6.60786 2.55357 5.83693C2.55357 4.49716 2.88381 3.56695 3.53477 3.07307C3.97917 2.72374 5.38845 2.13884 9.83919 2.13884C12.3914 2.13884 15.2127 2.36905 16.8775 2.59659C16.8829 2.59792 17.0256 2.61532 17.186 2.61532C17.4088 2.61532 17.5556 2.58186 17.6331 2.5136C17.7391 2.41991 17.7445 2.23387 17.7364 2.06389C17.7364 2.05318 17.735 2.04515 17.735 2.0398C17.735 1.61552 17.2662 0.874026 16.7198 0.61437C16.0254 0.257009 13.0886 3.05176e-05 9.73591 3.05176e-05C5.32322 3.05176e-05 2.88924 0.463127 1.59819 1.54726C0.553115 2.45873 0 4.07421 0 6.21838C0 7.47516 0.588449 8.657 1.15515 9.07057C1.80476 9.57784 4.22786 9.86292 8.76558 10.2404C11.5543 10.4732 14.7126 10.7356 15.2902 11.0796C15.562 11.3379 15.6992 11.8465 15.6992 12.5906C15.6992 13.8595 15.3649 14.8807 14.8023 15.3224L14.7846 15.3371C14.1608 15.8738 12.1699 16.1361 8.69899 16.1361C6.03398 16.1361 3.4111 15.9407 0.90102 15.5539L0.876558 15.5513C0.852096 15.5486 0.827634 15.5472 0.804531 15.5472C0.474293 15.5472 0.206569 15.8109 0.206569 16.1348C0.206569 16.5256 0.612911 17.223 1.03013 17.5469L1.05323 17.5629C1.70555 18.0126 4.83942 18.3258 8.67453 18.3258C13.1946 18.3258 15.706 17.8788 16.8177 16.875C17.8111 15.9608 18.3588 14.2771 18.3588 12.1329C18.3574 10.757 17.6956 9.67421 17.0786 9.25126Z" fill="#015BBB"/>
    <path d="M63.3939 15.4709H63.3559L63.3178 15.4763C62.1599 15.6355 59.446 16.009 56.1517 16.009C51.7485 16.009 49.7046 15.6556 48.6119 14.7053C47.594 13.8005 47.0994 11.999 47.0994 9.20037C47.0994 6.51548 47.749 4.50917 48.9272 3.55353C50.1313 2.64875 52.5205 2.18967 56.0267 2.18967C59.2516 2.18967 61.5919 2.4868 63.1398 2.68355L63.2254 2.69426C63.2702 2.70497 63.3151 2.70898 63.3599 2.70898C63.6888 2.70898 63.947 2.44799 63.947 2.11472C63.947 1.68508 63.4741 0.993115 62.974 0.689291L62.9468 0.67323L62.9264 0.663861C62.1232 0.278393 59.1579 0 55.8759 0C51.5814 0 48.7356 0.6304 47.1755 1.92868C45.4849 3.35009 44.5906 5.92657 44.5906 9.37838C44.5906 12.77 45.2525 15.0292 46.6142 16.2847C48.1132 17.6606 50.7239 18.2227 55.6258 18.2227C59.1266 18.2227 62.1273 17.9363 62.9196 17.5267C63.4034 17.2885 64 16.464 64 16.0317C63.9987 15.7225 63.7269 15.4709 63.3939 15.4709Z" fill="#015BBB"/>
    <path d="M31.4676 0C25.5872 0 20.8035 4.68183 20.8035 10.4357C20.8035 13.4124 22.1068 16.2539 24.3777 18.2334C24.5856 18.4168 24.8547 18.5172 25.136 18.5172C25.4622 18.5172 25.7748 18.3793 25.9922 18.1397C26.1933 17.9189 26.2953 17.6338 26.2776 17.338C26.2599 17.0396 26.124 16.7665 25.8957 16.5671C24.11 15.0118 23.0853 12.7767 23.0853 10.4344C23.0853 5.90917 26.8457 2.22849 31.4663 2.22849C36.0882 2.22849 39.8472 5.90917 39.8472 10.4344C39.8472 12.7753 38.8212 15.0105 37.0327 16.5698C36.8071 16.7665 36.6726 17.0396 36.6549 17.3354C36.6373 17.6325 36.7378 17.9176 36.939 18.1397C37.155 18.378 37.4663 18.5158 37.7924 18.5158C38.0737 18.5158 38.3428 18.4155 38.5521 18.2321C40.8257 16.2539 42.129 13.4111 42.129 10.4344C42.1317 4.68183 37.348 0 31.4676 0Z" fill="#015BBB"/>
    <path d="M31.4674 10.682C30.8315 10.682 30.3152 11.192 30.3152 11.8184V25.6537C30.3152 26.2801 30.8315 26.7887 31.4674 26.7887C32.1033 26.7887 32.6196 26.2801 32.6196 25.6537V11.8184C32.6196 11.192 32.1033 10.682 31.4674 10.682Z" fill="#015BBB"/>
    <path d="M63.8094 27.3828V27.3829C63.8999 27.3829 63.9723 27.4062 64.0278 27.4468C64.077 27.4829 64.1024 27.5261 64.1104 27.54M63.8094 27.3828L63.9834 27.6199M63.8094 27.3828L63.8032 27.383C62.8679 27.4217 59.4764 27.4471 57.5797 27.4471C56.1044 27.4471 54.9411 27.4471 53.9733 27.4378C53.8247 27.433 53.7412 27.4191 53.6966 27.3973C53.6787 27.3885 53.6739 27.3817 53.672 27.3785C53.6696 27.3745 53.6635 27.362 53.6635 27.3308V25.2094C53.6635 25.1736 53.6652 25.1543 53.6669 25.1439C53.6788 25.1396 53.7032 25.1332 53.7498 25.1284C53.8079 25.1224 53.8873 25.1198 53.9974 25.1198H61.5045L61.5261 25.1198C61.7749 25.1198 61.9936 25.1198 62.1172 25.0973L62.1268 25.0955L62.1361 25.0926C62.2271 25.0634 62.3148 24.9982 62.3764 24.9387C62.4085 24.9076 62.4388 24.8731 62.4623 24.8382C62.481 24.8103 62.5134 24.7565 62.5134 24.6928C62.5134 24.5996 62.4496 24.5356 62.3956 24.503C62.336 24.4669 62.2605 24.4491 62.1759 24.4491H53.9824C53.8829 24.4491 53.8091 24.4486 53.7521 24.4451C53.7064 24.4423 53.6804 24.4379 53.666 24.4341C53.6648 24.4253 53.6635 24.4106 53.6635 24.3876V22.3023C53.6635 22.261 53.6682 22.2404 53.6719 22.2308C53.6741 22.2251 53.6752 22.2241 53.6789 22.2216C53.6859 22.2169 53.7042 22.2079 53.7455 22.2002C53.7864 22.1927 53.8416 22.1879 53.9165 22.1859C54.3159 22.1779 54.8758 22.1739 55.6771 22.1739H55.6771C56.0251 22.1739 56.374 22.1739 56.6957 22.1753H56.6963C56.8347 22.1753 56.9684 22.1756 57.0952 22.1759L57.117 22.176C57.2356 22.1763 57.348 22.1766 57.452 22.1766C58.9082 22.1766 62.2928 22.1967 63.3796 22.2087C63.3796 22.2087 63.3796 22.2087 63.3797 22.2087L63.8389 22.2141V22.2141H63.8407C63.9083 22.2141 63.9825 22.2004 64.0442 22.1566C64.1122 22.1083 64.1497 22.0337 64.1497 21.9503V21.935L64.1466 21.9199C64.1349 21.8636 64.1 21.8165 64.0762 21.788C64.0481 21.7544 64.0134 21.7212 63.9773 21.6915C63.9104 21.6365 63.8131 21.5732 63.7192 21.5553L63.7192 21.5552L63.7138 21.5544C63.6713 21.5479 63.5695 21.5438 63.4363 21.5404C63.2972 21.5368 63.1105 21.5337 62.8879 21.531C62.4425 21.5258 61.8513 21.5223 61.2059 21.5199C59.9151 21.5152 58.4059 21.5152 57.4098 21.5152H57.4098H57.4089C55.7523 21.5152 54.5542 21.5152 53.3832 21.534C53.2208 21.5341 53.0723 21.5631 52.9592 21.6316C52.8387 21.7046 52.7615 21.822 52.7615 21.9704V27.5155C52.7615 27.6869 52.8034 27.8441 52.9281 27.9531C53.0477 28.0577 53.2136 28.091 53.3969 28.0911M63.8094 27.3828L53.3969 28.0911M64.1104 27.54C64.1105 27.5402 64.1106 27.5403 64.1107 27.5405C64.1113 27.5415 64.1118 27.5424 64.1121 27.543L64.0573 27.5757L63.9834 27.6199M64.1104 27.54L64.1103 27.5399L64.1076 27.5359L63.9834 27.6199M64.1104 27.54L64.152 27.6014L64.1292 27.6691M63.9834 27.6199L63.9861 27.6239L63.9847 27.6279M64.1292 27.6691C64.1302 27.665 64.1311 27.661 64.1319 27.6569L64.0165 27.6342L63.9847 27.6279M64.1292 27.6691L64.1282 27.6718L64.1269 27.6759L63.9847 27.6279M64.1292 27.6691C64.1163 27.7196 64.0872 27.7632 64.0641 27.7932C64.0361 27.8297 64.0014 27.8656 63.9652 27.8981C63.8961 27.96 63.8027 28.0257 63.7144 28.0544L63.7031 28.058L63.6913 28.0599C63.649 28.0665 63.5515 28.0711 63.4246 28.0752C63.2923 28.0795 63.1152 28.0834 62.9039 28.087C62.4813 28.0943 61.9198 28.1002 61.3017 28.105C60.0654 28.1145 58.6013 28.1192 57.5661 28.1192C55.9352 28.1192 54.649 28.1099 53.3969 28.0911M63.9847 27.6279C63.9684 27.7109 63.7877 27.8729 63.6681 27.9117L53.398 28.0911C53.3976 28.0911 53.3973 28.0911 53.3969 28.0911" fill="#FFD501" stroke="#FFD501" stroke-width="0.3"/>
    <path d="M47.8893 21.9188C47.8901 21.8247 47.8688 21.74 47.8206 21.6708C47.7719 21.601 47.7052 21.5606 47.6396 21.5392C47.5165 21.4989 47.3832 21.5201 47.3062 21.54L47.3061 21.5401L47.7393 21.9181M47.8893 21.9188C47.8893 21.9191 47.8893 21.9193 47.8893 21.9196L47.7393 21.9181M47.8893 21.9188V21.9181H47.7393M47.8893 21.9188V21.9208V21.9235V21.9262V21.9289V21.9316V21.9342V21.9369V21.9396V21.9422V21.9449V21.9475V21.9501V21.9528V21.9554V21.958V21.9606V21.9632V21.9658V21.9684V21.971V21.9736V21.9762V21.9788V21.9814V21.9839V21.9865V21.9891V21.9916V21.9942V21.9967V21.9992V22.0018V22.0043V22.0068V22.0093V22.0118V22.0143V22.0168V22.0193V22.0218V22.0243V22.0268V22.0293V22.0317V22.0342V22.0366V22.0391V22.0415V22.044V22.0464V22.0488V22.0513V22.0537V22.0561V22.0585V22.0609V22.0633V22.0657V22.0681V22.0705V22.0729V22.0752V22.0776V22.08V22.0823V22.0847V22.087V22.0893V22.0917V22.094V22.0963V22.0987V22.101V22.1033V22.1056V22.1079V22.1102V22.1125V22.1147V22.117V22.1193V22.1216V22.1238V22.1261V22.1283V22.1306V22.1328V22.135V22.1373V22.1395V22.1417V22.1439V22.1461V22.1483V22.1505V22.1527V22.1549V22.1571V22.1593V22.1614V22.1636V22.1658V22.1679V22.1701V22.1722V22.1744V22.1765V22.1786V22.1807V22.1829V22.185V22.1871V22.1892V22.1913V22.1934V22.1955V22.1975V22.1996V22.2017V22.2038V22.2058V22.2079V22.2099V22.212V22.214V22.216V22.2181V22.2201V22.2221V22.2241V22.2261V22.2281V22.2301V22.2321V22.2341V22.2361V22.2381V22.24V22.242V22.244V22.2459V22.2479V22.2498V22.2517V22.2537V22.2556V22.2575V22.2594V22.2614V22.2633V22.2652V22.2671V22.2689V22.2708V22.2727V22.2746V22.2765V22.2783V22.2802V22.282V22.2839V22.2857V22.2876V22.2894V22.2912V22.293V22.2949V22.2967V22.2985V22.3003V22.3021V22.3039V22.3057V22.3074V22.3092V22.311V22.3127V22.3145V22.3163V22.318V22.3197V22.3215V22.3232V22.3249V22.3267V22.3284V22.3301V22.3318V22.3335V22.3352V22.3369V22.3386V22.3403V22.3419V22.3436V22.3453V22.3469V22.3486V22.3502V22.3519V22.3535V22.3551V22.3568V22.3584V22.36V22.3616V22.3632V22.3648V22.3664V22.368V22.3696V22.3712V22.3727V22.3743V22.3759V22.3774V22.379V22.3805V22.3821V22.3836V22.3851V22.3867V22.3882V22.3897V22.3912V22.3927V22.3942V22.3957V22.3972V22.3987V22.4002V22.4017V22.4031V22.4046V22.406V22.4075V22.4089V22.4104V22.4118V22.4133V22.4147V22.4161V22.4175V22.4189V22.4203V22.4217V22.4231V22.4245V22.4259V22.4273V22.4287V22.43V22.4314V22.4327V22.4341V22.4354V22.4368V22.4381V22.4395V22.4408V22.4421V22.4434V22.4447V22.446V22.4473V22.4486V22.4499V22.4512V22.4525V22.4538V22.455V22.4563V22.4576V22.4588V22.4601V22.4613V22.4625V22.4638V22.465V22.4662V22.4674V22.4686V22.4698V22.471V22.4722V22.4734V22.4746V22.4758V22.477V22.4781V22.4793V22.4805V22.4816V22.4828V22.4839V22.485V22.4862V22.4873V22.4884V22.4895V22.4906V22.4917V22.4928V22.4939V22.495V22.4961V22.4972V22.4983V22.4993V22.5004V22.5015V22.5025V22.5036V22.5046V22.5056V22.5067V22.5077V22.5087V22.5097V22.5107V22.5117V22.5127V22.5137V22.5147V22.5157V22.5167V22.5177V22.5186V22.5196V22.5206V22.5215V22.5225V22.5234V22.5243V22.5253V22.5262V22.5271V22.528V22.5289V22.5298V22.5307V22.5316V22.5325V22.5334V22.5343V22.5352V22.536V22.5369V22.5378V22.5386V22.5395V22.5403V22.5411V22.542V22.5428V22.5436V22.5444V22.5452V22.5461V22.5469V22.5476V22.5484V22.5492V22.55V22.5508V22.5515V22.5523V22.5531V22.5538V22.5546V22.5553V22.556V22.5568V22.5575V22.5582V22.5589V22.5597V22.5604V22.5611V22.5618V22.5624V22.5631V22.5638V22.5645V22.5652V22.5658V22.5665V22.5671V22.5678V22.5684V22.5691V22.5697V22.5703V22.5709V22.5716V22.5722V22.5728V22.5734V22.574V22.5746V22.5751V22.5757V22.5763V22.5769V22.5774V22.578V22.5785V22.5791V22.5796V22.5802V22.5807V22.5812V22.5817V22.5823V22.5828V22.5833V22.5838V22.5843V22.5848V22.5853V22.5857V22.5862V22.5867V22.5871V22.5876V22.5881V22.5885V22.5889V22.5894V22.5898V22.5902V22.5907V22.5911V22.5915V22.5919V22.5923V22.5927V22.5931V22.5935V22.5939V22.5942V22.5946V22.595V22.5953V22.5957V22.596V22.5964V22.5967V22.597V22.5974V22.5977V22.598V22.5983V22.5986V22.5989V22.5992V22.5995V22.5998V22.6001V22.6004V22.6006V22.6009V22.6011V22.6014V22.6016V22.6019V22.6021V22.6024V22.6026V22.6028V22.603V22.6032V22.6035V22.6037V22.6039V22.604V22.6042V22.6044V22.6046V22.6048V22.6049V22.6051V22.6052V22.6054V22.6055V22.6057V22.6058V22.6059V22.6061V22.6062V22.6063V22.6064V22.6065V22.6066V22.6067V22.6068V22.6068V22.6069V22.607V22.6071V22.6071V22.6072V22.6072V22.6073V22.6073V22.6073V22.6074V22.6074V22.6074V22.6074V22.6074V27.8461C47.8893 27.8479 47.8893 27.85 47.8893 27.8524C47.8895 27.8833 47.89 27.9544 47.8598 28.0163C47.8405 28.0561 47.8089 28.0931 47.7624 28.1182C47.7183 28.1421 47.6704 28.15 47.6251 28.15H47.3832C47.3123 28.15 47.2492 28.1456 47.1964 28.1316C47.141 28.1169 47.0819 28.0874 47.0431 28.0269C47.0077 27.9717 47.0045 27.913 47.0041 27.8794C47.0038 27.8612 47.0046 27.8423 47.0051 27.8271C47.0057 27.8106 47.0063 27.7959 47.0063 27.7805V27.7802L47.0158 22.6602L47.1658 22.6596M47.7393 21.9181V22.6074V27.8461C47.7393 27.9197 47.7393 28 47.6251 28H47.3832C47.1489 28 47.1509 27.9456 47.155 27.8325C47.1556 27.8164 47.1563 27.799 47.1563 27.7805L47.1658 22.6596M47.1658 22.6596C47.1658 22.6596 47.1655 22.5972 47.1652 22.5278L47.1658 22.6596ZM36.6716 22.6074V21.9181C36.6716 21.6331 36.9352 21.6505 37.0698 21.6853L37.1073 21.54C37.0303 21.5201 36.8971 21.499 36.7738 21.5391C36.7082 21.5605 36.6415 21.6006 36.5924 21.67C36.5436 21.7389 36.5216 21.8237 36.5216 21.9181V21.9208V21.9235V21.9262V21.9289V21.9316V21.9342V21.9369V21.9396V21.9422V21.9449V21.9475V21.9501V21.9528V21.9554V21.958V21.9606V21.9632V21.9658V21.9684V21.971V21.9736V21.9762V21.9788V21.9814V21.9839V21.9865V21.9891V21.9916V21.9942V21.9967V21.9992V22.0018V22.0043V22.0068V22.0093V22.0118V22.0143V22.0168V22.0193V22.0218V22.0243V22.0268V22.0293V22.0317V22.0342V22.0366V22.0391V22.0415V22.044V22.0464V22.0488V22.0513V22.0537V22.0561V22.0585V22.0609V22.0633V22.0657V22.0681V22.0705V22.0729V22.0752V22.0776V22.08V22.0823V22.0847V22.087V22.0893V22.0917V22.094V22.0963V22.0987V22.101V22.1033V22.1056V22.1079V22.1102V22.1125V22.1147V22.117V22.1193V22.1216V22.1238V22.1261V22.1283V22.1306V22.1328V22.135V22.1373V22.1395V22.1417V22.1439V22.1461V22.1483V22.1505V22.1527V22.1549V22.1571V22.1593V22.1614V22.1636V22.1658V22.1679V22.1701V22.1722V22.1744V22.1765V22.1786V22.1807V22.1829V22.185V22.1871V22.1892V22.1913V22.1934V22.1955V22.1975V22.1996V22.2017V22.2038V22.2058V22.2079V22.2099V22.212V22.214V22.216V22.2181V22.2201V22.2221V22.2241V22.2261V22.2281V22.2301V22.2321V22.2341V22.2361V22.2381V22.24V22.242V22.244V22.2459V22.2479V22.2498V22.2517V22.2537V22.2556V22.2575V22.2594V22.2614V22.2633V22.2652V22.2671V22.2689V22.2708V22.2727V22.2746V22.2765V22.2783V22.2802V22.282V22.2839V22.2857V22.2876V22.2894V22.2912V22.293V22.2949V22.2967V22.2985V22.3003V22.3021V22.3039V22.3057V22.3074V22.3092V22.311V22.3127V22.3145V22.3163V22.318V22.3197V22.3215V22.3232V22.3249V22.3267V22.3284V22.3301V22.3318V22.3335V22.3352V22.3369V22.3386V22.3403V22.3419V22.3436V22.3453V22.3469V22.3486V22.3502V22.3519V22.3535V22.3551V22.3568V22.3584V22.36V22.3616V22.3632V22.3648V22.3664V22.368V22.3696V22.3712V22.3727V22.3743V22.3759V22.3774V22.379V22.3805V22.3821V22.3836V22.3851V22.3867V22.3882V22.3897V22.3912V22.3927V22.3942V22.3957V22.3972V22.3987V22.4002V22.4017V22.4031V22.4046V22.406V22.4075V22.4089V22.4104V22.4118V22.4133V22.4147V22.4161V22.4175V22.4189V22.4203V22.4217V22.4231V22.4245V22.4259V22.4273V22.4287V22.43V22.4314V22.4327V22.4341V22.4354V22.4368V22.4381V22.4395V22.4408V22.4421V22.4434V22.4447V22.446V22.4473V22.4486V22.4499V22.4512V22.4525V22.4538V22.455V22.4563V22.4576V22.4588V22.4601V22.4613V22.4625V22.4638V22.465V22.4662V22.4674V22.4686V22.4698V22.471V22.4722V22.4734V22.4746V22.4758V22.477V22.4781V22.4793V22.4805V22.4816V22.4828V22.4839V22.485V22.4862V22.4873V22.4884V22.4895V22.4906V22.4917V22.4928V22.4939V22.495V22.4961V22.4972V22.4983V22.4993V22.5004V22.5015V22.5025V22.5036V22.5046V22.5056V22.5067V22.5077V22.5087V22.5097V22.5107V22.5117V22.5127V22.5137V22.5147V22.5157V22.5167V22.5177V22.5186V22.5196V22.5206V22.5215V22.5225V22.5234V22.5243V22.5253V22.5262V22.5271V22.528V22.5289V22.5298V22.5307V22.5316V22.5325V22.5334V22.5343V22.5352V22.536V22.5369V22.5378V22.5386V22.5395V22.5403V22.5411V22.542V22.5428V22.5436V22.5444V22.5452V22.5461V22.5469V22.5476V22.5484V22.5492V22.55V22.5508V22.5515V22.5523V22.5531V22.5538V22.5546V22.5553V22.556V22.5568V22.5575V22.5582V22.5589V22.5597V22.5604V22.5611V22.5618V22.5624V22.5631V22.5638V22.5645V22.5652V22.5658V22.5665V22.5671V22.5678V22.5684V22.5691V22.5697V22.5703V22.5709V22.5716V22.5722V22.5728V22.5734V22.574V22.5746V22.5751V22.5757V22.5763V22.5769V22.5774V22.578V22.5785V22.5791V22.5796V22.5802V22.5807V22.5812V22.5817V22.5823V22.5828V22.5833V22.5838V22.5843V22.5848V22.5853V22.5857V22.5862V22.5867V22.5871V22.5876V22.5881V22.5885V22.5889V22.5894V22.5898V22.5902V22.5907V22.5911V22.5915V22.5919V22.5923V22.5927V22.5931V22.5935V22.5939V22.5942V22.5946V22.595V22.5953V22.5957V22.596V22.5964V22.5967V22.597V22.5974V22.5977V22.598V22.5983V22.5986V22.5989V22.5992V22.5995V22.5998V22.6001V22.6004V22.6006V22.6009V22.6011V22.6014V22.6016V22.6019V22.6021V22.6024V22.6026V22.6028V22.603V22.6032V22.6035V22.6037V22.6039V22.604V22.6042V22.6044V22.6046V22.6048V22.6049V22.6051V22.6052V22.6054V22.6055V22.6057V22.6058V22.6059V22.6061V22.6062V22.6063V22.6064V22.6065V22.6066V22.6067V22.6068V22.6068V22.6069V22.607V22.6071V22.6071V22.6072V22.6072V22.6073V22.6073V22.6073V22.6074V22.6074V22.6074V22.6074V22.6074L36.6716 22.6074ZM36.6716 22.6074H36.5216V27.8461C36.5216 27.8479 36.5216 27.85 36.5215 27.8524C36.5213 27.8833 36.5208 27.9544 36.551 28.0163C36.5704 28.0561 36.6019 28.0931 36.6484 28.1182C36.6926 28.1421 36.7404 28.15 36.7857 28.15H37.0276C37.0984 28.15 37.1614 28.1457 37.2141 28.1319C37.2692 28.1174 37.3286 28.0883 37.3676 28.0277C37.4032 27.9724 37.4063 27.9135 37.4068 27.88C37.407 27.8624 37.4063 27.8442 37.4058 27.8292L37.4057 27.8275C37.4051 27.811 37.4046 27.7961 37.4046 27.7805L37.4046 27.7802L37.3951 22.66L37.3951 22.6598L37.3951 22.6592L37.3951 22.6563L37.3951 22.6454L37.3952 22.6248M36.6716 22.6074L37.3952 22.6248M37.3952 22.6248C37.5304 22.7116 37.7182 22.8306 37.9413 22.9712C38.4065 23.2642 39.0266 23.6519 39.6466 24.0384C40.2665 24.4249 40.8865 24.8104 41.3514 25.0993L41.9132 25.4482L42.0706 25.5459L42.1121 25.5716L42.1228 25.5782L42.1255 25.5799L42.1261 25.5803L42.1263 25.5804L42.2054 25.4529M37.3952 22.6248L47.0158 22.6594L47.0158 22.6592L47.0158 22.6563L47.0157 22.6453L47.0156 22.6248C46.8805 22.7116 46.6927 22.8306 46.4695 22.9712C46.0043 23.2642 45.3842 23.6519 44.7643 24.0384C44.1443 24.4249 43.5244 24.8104 43.0594 25.0993L42.4976 25.4482L42.3402 25.5459L42.2987 25.5716L42.2881 25.5782L42.2854 25.5799L42.2847 25.5803L42.2845 25.5804L42.2054 25.4529M42.2054 25.4529L42.1264 25.5804L42.2054 25.6295L42.2845 25.5804L42.2054 25.4529ZM42.2068 24.8466L42.2882 24.7206L42.288 24.7205L42.2874 24.7201L42.2848 24.7184L42.2746 24.7119L42.235 24.6863L42.2068 24.6681L42.1786 24.6863L42.139 24.7119L42.1288 24.7184L42.1262 24.7201L42.1256 24.7205L42.1254 24.7206L42.2068 24.8466Z" fill="#FFD501" stroke="#FFD501" stroke-width="0.3"/>
    <path d="M16.0154 21.5608L16.0154 21.5608C16.9002 21.5339 20.75 21.5152 22.0961 21.5152C23.3318 21.5152 24.1468 21.5302 24.7153 21.5744C25.2829 21.6185 25.618 21.6924 25.8872 21.8177C26.4953 22.0871 26.8165 22.6747 26.8151 23.4322M16.0154 21.5608L26.6651 23.432M16.0154 21.5608L16.0138 21.5609C15.8955 21.5658 15.7809 21.584 15.6942 21.6428C15.5922 21.7121 15.5561 21.8166 15.5561 21.9235V27.83C15.5561 27.8308 15.5561 27.8316 15.5561 27.8325C15.556 27.8661 15.5559 27.9548 15.6239 28.0229C15.6906 28.0896 15.7852 28.1005 15.8651 28.1005H16.1219C16.1892 28.1005 16.2735 28.0938 16.3414 28.0464C16.4246 27.9884 16.4445 27.9004 16.4445 27.83V25.6711C16.4445 25.5202 16.4745 25.5099 16.4757 25.5094C16.4758 25.5094 16.4758 25.5094 16.4758 25.5094C16.4853 25.5037 16.5078 25.4948 16.5595 25.4892C16.6106 25.4836 16.6757 25.4825 16.7634 25.4825L23.0597 25.4891L24.8141 27.8081L24.8189 27.8145L24.8243 27.8203C24.9305 27.9334 25.0181 28.02 25.1362 28.0671C25.2507 28.1127 25.38 28.1152 25.5466 28.1152H25.5887C25.659 28.1152 25.7541 28.0999 25.8204 28.0346L25.7151 27.9277L25.8204 28.0346C25.8446 28.0108 25.8734 27.9712 25.8809 27.9151C25.8886 27.8583 25.8715 27.8064 25.8452 27.7642L25.8457 27.7639L25.838 27.7537L24.1394 25.4782M16.0154 21.5608L24.1394 25.4782M26.8151 23.4322L26.6651 23.432M26.8151 23.4322C26.8151 23.4321 26.8151 23.432 26.8151 23.432H26.6651M26.8151 23.4322C26.8149 24.4863 26.1329 25.087 25.4954 25.2917M26.6651 23.432C26.6651 24.409 26.0372 24.9604 25.4488 25.1492M25.4954 25.2917C25.4957 25.2916 25.496 25.2915 25.4962 25.2914L25.4488 25.1492M25.4954 25.2917C25.1852 25.3951 24.7681 25.4541 24.1394 25.4782M25.4954 25.2917C25.4951 25.2918 25.4948 25.2919 25.4946 25.292L25.4488 25.1492M25.4488 25.1492L24.1394 25.4782M16.5242 22.2194V22.2195L16.53 22.2193C17.2452 22.1914 20.9796 22.1833 22.054 22.1833C23.1788 22.1833 23.9146 22.1961 24.4131 22.2314C24.9152 22.2671 25.1572 22.3248 25.3083 22.4023L25.3081 22.4026L25.3167 22.4063C25.4598 22.4688 25.6325 22.571 25.7691 22.7384C25.9035 22.9032 26.0095 23.1392 26.0095 23.4839C26.0083 24.0786 25.5775 24.5383 24.9867 24.7113C24.6966 24.7843 24.1862 24.8158 23.1385 24.8158H16.7933C16.6889 24.8158 16.6129 24.8128 16.5563 24.8056C16.4985 24.7982 16.4745 24.7878 16.4655 24.7822C16.4653 24.782 16.4651 24.7819 16.4648 24.7818C16.4623 24.7802 16.4602 24.779 16.4567 24.7683C16.4507 24.7501 16.4459 24.7172 16.4459 24.6553V22.2259C16.4474 22.2256 16.449 22.2253 16.4507 22.2249C16.4675 22.2217 16.4914 22.2194 16.5242 22.2194Z" fill="#FFD501" stroke="#FFD501" stroke-width="0.3"/>
    <path d="M0.30938 21.5608L0.309378 21.5608L0.305932 21.5609C0.188274 21.5672 0.0742748 21.586 -0.0118739 21.6445C-0.113679 21.7136 -0.15 21.8176 -0.15 21.9249V27.8314C-0.15 27.8322 -0.150001 27.833 -0.150002 27.8338C-0.15005 27.8675 -0.150177 27.9562 -0.0821463 28.0242C-0.0154922 28.0909 0.0791692 28.1018 0.159004 28.1018H0.415855C0.48315 28.1018 0.567442 28.0951 0.635348 28.0478C0.718576 27.9897 0.738449 27.9018 0.738449 27.8314V25.6725C0.738449 25.5215 0.768431 25.5112 0.769676 25.5108C0.769698 25.5108 0.769711 25.5108 0.769715 25.5108C0.779265 25.505 0.801777 25.4962 0.853472 25.4905C0.904538 25.485 0.969608 25.4839 1.05731 25.4839H7.65935C8.74106 25.4839 9.36907 25.4314 9.78949 25.2903C10.4251 25.0861 11.109 24.5039 11.109 23.448C11.109 22.6942 10.7909 22.0878 10.1812 21.8177C9.91196 21.6924 9.57682 21.6185 9.00925 21.5744C8.44077 21.5302 7.62573 21.5152 6.39004 21.5152C5.04399 21.5152 1.19413 21.5339 0.30938 21.5608ZM0.818121 22.206V22.2062L0.823981 22.2059C1.53911 22.178 5.27354 22.1699 6.34791 22.1699C7.47279 22.1699 8.2085 22.1827 8.70706 22.218C9.20911 22.2537 9.4511 22.3114 9.60222 22.3889L9.60209 22.3892L9.61064 22.3929C9.7537 22.4554 9.92649 22.5576 10.063 22.725C10.1974 22.8898 10.3034 23.1258 10.3035 23.4705C10.3023 24.0652 9.87146 24.5249 9.27931 24.6979C8.98922 24.7709 8.47889 24.8024 7.43104 24.8024H1.0872C0.982888 24.8024 0.906812 24.7994 0.85024 24.7922C0.792428 24.7848 0.768413 24.7744 0.759476 24.7688C0.759234 24.7687 0.758998 24.7685 0.758766 24.7684C0.756212 24.7669 0.754134 24.7656 0.750611 24.7549C0.744651 24.7367 0.739808 24.7038 0.739808 24.6419V22.2125C0.741299 22.2122 0.7429 22.2119 0.744614 22.2115C0.761458 22.2083 0.785367 22.206 0.818121 22.206Z" fill="#FFD501" stroke="#FFD501" stroke-width="0.3"/>
  </g>
  <defs>
    <clipPath id="clip0_1_882">
      <rect width="64" height="28" fill="white"/>
    </clipPath>
  </defs>
</svg>